<svg width="16" height="16" viewBox="0 0 16 16" fill="none" xmlns="http://www.w3.org/2000/svg">
<path d="M2.14426 4.33654L1.79071 3.98299L1.64426 4.12943L1.64426 4.33654L2.14426 4.33654ZM5.9808 0.5V0H5.77369L5.62724 0.146447L5.9808 0.5ZM13.1058 2.69231H12.6058H12.6058H13.1058ZM13.1058 9.81731V10.3173H13.6058V9.81731H13.1058ZM2.14424 9.8173L1.64424 9.8173L1.64424 10.3173H2.14424L2.14424 9.8173ZM6.52885 4.88462V5.38462H7.02885V4.88462H6.52885ZM0.5 9.31732C0.223858 9.31732 0 9.54118 0 9.81732C0 10.0935 0.223858 10.3173 0.5 10.3173V9.81732V9.31732ZM14.75 10.3173C15.0261 10.3173 15.25 10.0935 15.25 9.81732C15.25 9.54118 15.0261 9.31732 14.75 9.31732V9.81732V10.3173ZM2.7404 13.1058C2.7404 13.3819 2.96426 13.6058 3.2404 13.6058C3.51654 13.6058 3.7404 13.3819 3.7404 13.1058H3.2404H2.7404ZM3.7404 12.0097C3.7404 11.7335 3.51654 11.5097 3.2404 11.5097C2.96426 11.5097 2.7404 11.7335 2.7404 12.0097H3.2404L3.7404 12.0097ZM5.48076 14.75C5.48076 15.0261 5.70462 15.25 5.98076 15.25C6.2569 15.25 6.48076 15.0261 6.48076 14.75H5.98076H5.48076ZM6.48076 12.0096C6.48076 11.7335 6.2569 11.5096 5.98076 11.5096C5.70462 11.5096 5.48076 11.7335 5.48076 12.0096H5.98076H6.48076ZM8.22116 13.1058C8.22116 13.3819 8.44502 13.6058 8.72116 13.6058C8.9973 13.6058 9.22116 13.3819 9.22116 13.1058H8.72116H8.22116ZM9.22116 12.0097C9.22116 11.7335 8.9973 11.5097 8.72116 11.5097C8.44502 11.5097 8.22116 11.7335 8.22116 12.0097H8.72116H9.22116ZM10.9615 14.75C10.9615 15.0261 11.1854 15.25 11.4615 15.25C11.7377 15.25 11.9615 15.0261 11.9615 14.75H11.4615H10.9615ZM11.9615 12.0096C11.9615 11.7335 11.7377 11.5096 11.4615 11.5096C11.1854 11.5096 10.9615 11.7335 10.9615 12.0096H11.4615H11.9615ZM2.14426 4.33654L2.49781 4.69009L6.33435 0.853553L5.9808 0.5L5.62724 0.146447L1.79071 3.98299L2.14426 4.33654ZM13.1058 2.69231H12.6058L12.6058 9.81731H13.1058H13.6058L13.6058 2.69231L13.1058 2.69231ZM10.9135 0.5V1C11.8481 1 12.6058 1.75767 12.6058 2.69231H13.1058H13.6058C13.6058 1.20539 12.4004 0 10.9135 0V0.5ZM5.9808 0.5V1H6.52885V0.5V0H5.9808V0.5ZM6.52885 0.5V1H10.9135V0.5V0H6.52885V0.5ZM2.14426 4.33654L1.64426 4.33654L1.64426 4.88461L2.14426 4.88462L2.64426 4.88462L2.64426 4.33654L2.14426 4.33654ZM2.14426 4.88462L1.64426 4.88461L1.64424 9.8173L2.14424 9.8173L2.64424 9.8173L2.64426 4.88462L2.14426 4.88462ZM6.52885 0.5H6.02885V4.88462H6.52885H7.02885V0.5H6.52885ZM6.52885 4.88462V4.38462H2.14426V4.88462V5.38462H6.52885V4.88462ZM2.14424 9.8173L2.14424 10.3173L13.1058 10.3173V9.81731V9.31731L2.14424 9.3173L2.14424 9.8173ZM0.5 9.81732V10.3173H14.75V9.81732V9.31732H0.5V9.81732ZM3.2404 13.1058H3.7404L3.7404 12.0097L3.2404 12.0097H2.7404L2.7404 13.1058H3.2404ZM5.98076 14.75H6.48076V12.0096H5.98076H5.48076V14.75H5.98076ZM8.72116 13.1058H9.22116V12.0097H8.72116H8.22116V13.1058H8.72116ZM11.4615 14.75H11.9615V12.0096H11.4615H10.9615V14.75H11.4615Z" fill="#FF495C"/>
</svg>
