<svg width="85" height="79" viewBox="0 0 85 79" fill="none" xmlns="http://www.w3.org/2000/svg">
<path d="M1.51892 25.1326C3.27027 16.4469 13.9243 7.03734 19.0324 3.4183C24.8703 1.97068 42.2378 -0.0559871 65.0054 3.4183C73.7622 6.89258 80.3297 19.3421 82.5189 25.1326M1.51892 25.1326C2.97838 36.7135 12.9027 63.3497 40.9243 77.2468M1.51892 25.1326C19.0324 22.9611 45.3027 20.7896 82.5189 25.1326M40.9243 77.2468C51.8703 72.904 75.5135 56.4011 82.5189 25.1326M40.9243 77.2468C28.6649 52.9268 21.9514 30.923 21.2216 22.9611L34.3568 1.24683M40.9243 77.2468C53.1838 52.9268 59.8973 30.923 60.6271 22.9611L47.4919 1.24683" stroke="#6DA34D" stroke-width="3"/>
</svg>
