<svg width="51" height="64" viewBox="0 0 51 64" fill="none" xmlns="http://www.w3.org/2000/svg">
<path d="M1.50008 17.8053L0.453281 16.7309L8.04663e-05 17.1725L7.87973e-05 17.8053L1.50008 17.8053ZM18.2344 1.5V0H17.6245L17.1876 0.425657L18.2344 1.5ZM49.3125 10.8173H47.8125V10.8173H49.3125ZM49.3125 52.7452H50.8125V52.7452H49.3125ZM1.5 52.7452L3 52.7452V52.7452H1.5ZM20.6249 20.1346V21.6346H22.1249V20.1346H20.6249ZM1.50007 20.1346L7.27177e-05 20.1346V20.1346L1.50007 20.1346ZM15.8438 34.9399C15.0154 34.9399 14.3438 35.6115 14.3438 36.4399C14.3438 37.2684 15.0154 37.9399 15.8438 37.9399V36.4399V34.9399ZM34.9688 37.9399C35.7972 37.9399 36.4688 37.2684 36.4688 36.4399C36.4688 35.6115 35.7972 34.9399 34.9688 34.9399V36.4399V37.9399ZM15.8438 46.5864C15.0154 46.5864 14.3438 47.258 14.3438 48.0864C14.3438 48.9149 15.0154 49.5864 15.8438 49.5864V48.0864V46.5864ZM25.4063 49.5864C26.2347 49.5864 26.9063 48.9149 26.9063 48.0864C26.9063 47.258 26.2347 46.5864 25.4063 46.5864V48.0864V49.5864ZM1.50008 17.8053L2.54688 18.8796L19.2812 2.57434L18.2344 1.5L17.1876 0.425657L0.453281 16.7309L1.50008 17.8053ZM11.0625 62.0625V63.5625H39.75V62.0625V60.5625H11.0625V62.0625ZM49.3125 10.8173H47.8125L47.8125 52.7452H49.3125H50.8125L50.8125 10.8173H49.3125ZM11.0625 62.0625V60.5625C6.57272 60.5625 2.99999 57.0261 3 52.7452L1.5 52.7452L0 52.7452C-1.56164e-05 58.7559 4.9898 63.5625 11.0625 63.5625V62.0625ZM39.75 62.0625V63.5625C45.8227 63.5625 50.8125 58.7559 50.8125 52.7452H49.3125H47.8125C47.8125 57.0261 44.2398 60.5625 39.75 60.5625V62.0625ZM39.75 1.5V3C44.2398 3 47.8125 6.53642 47.8125 10.8173H49.3125H50.8125C50.8125 4.80658 45.8227 0 39.75 0V1.5ZM18.2344 1.5V3H20.6249V1.5V0H18.2344V1.5ZM20.6249 1.5V3H39.75V1.5V0H20.6249V1.5ZM1.50008 17.8053L7.87973e-05 17.8053L7.27177e-05 20.1346L1.50007 20.1346L3.00007 20.1346L3.00008 17.8053L1.50008 17.8053ZM1.50007 20.1346L7.27177e-05 20.1346L0 52.7452L1.5 52.7452H3L3.00007 20.1346L1.50007 20.1346ZM20.6249 1.5H19.1249V20.1346H20.6249H22.1249V1.5H20.6249ZM20.6249 20.1346V18.6346H1.50007V20.1346V21.6346H20.6249V20.1346ZM15.8438 36.4399V37.9399H34.9688V36.4399V34.9399H15.8438V36.4399ZM15.8438 48.0864V49.5864H25.4063V48.0864V46.5864H15.8438V48.0864Z" fill="#FF495C"/>
</svg>
