<svg width="235" height="51" viewBox="0 0 235 51" fill="none" xmlns="http://www.w3.org/2000/svg">
<path d="M32.4945 19.3658L57.5129 33.6035C57.6593 33.6868 57.6593 33.8947 57.5129 33.9779L45.1231 41.0288C45.0549 41.0676 44.9707 41.0676 44.9024 41.0288L32.5127 33.9779C32.3663 33.8947 32.3663 33.6868 32.5127 33.6035L58.2749 18.9424C58.4213 18.8591 58.4213 18.6513 58.2749 18.568L45.1296 11.087C45.0579 11.0462 44.969 11.0484 44.8995 11.0927L32.4852 18.997C32.3472 19.0848 32.3523 19.2849 32.4945 19.3658Z" stroke="#7852FD" stroke-width="7"/>
<path d="M69.3847 37.6293V14.7722H77.4364C79.0406 14.7722 80.3638 15.0475 81.406 15.5981C82.448 16.1412 83.2238 16.8741 83.7337 17.7967C84.2436 18.7119 84.4984 19.7275 84.4984 20.8436C84.4984 21.8257 84.3221 22.6367 83.9699 23.2766C83.625 23.9165 83.1678 24.4225 82.598 24.7945C82.0357 25.1665 81.4246 25.4418 80.765 25.6204V25.8436C81.4698 25.8882 82.1782 26.1338 82.8903 26.5802C83.6025 27.0266 84.1984 27.6665 84.6783 28.4999C85.1581 29.3332 85.3979 30.3525 85.3979 31.5578C85.3979 32.7037 85.1356 33.7343 84.6107 34.6493C84.0861 35.5645 83.2576 36.29 82.1256 36.8257C80.9937 37.3615 79.5206 37.6293 77.7064 37.6293H69.3847ZM72.1737 35.174H77.7064C79.5281 35.174 80.8212 34.8243 81.5859 34.1248C82.3581 33.4181 82.7441 32.5623 82.7441 31.5578C82.7441 30.784 82.5454 30.0699 82.148 29.415C81.7507 28.7528 81.1848 28.2245 80.45 27.8302C79.7155 27.4284 78.8457 27.2275 77.8412 27.2275H72.1737V35.174ZM72.1737 24.8168H77.3465C78.1861 24.8168 78.9433 24.6531 79.6179 24.3257C80.3002 23.9983 80.8399 23.537 81.2372 22.9418C81.642 22.3466 81.8444 21.6472 81.8444 20.8436C81.8444 19.8391 81.4922 18.9872 80.7874 18.2878C80.0829 17.5809 78.9658 17.2275 77.4364 17.2275H72.1737V24.8168ZM90.6911 14.7722V37.6293H88.0371V14.7722H90.6911ZM104.854 30.6203V20.4864H107.508V37.6293H104.854V34.7274H104.674C104.269 35.5981 103.639 36.3384 102.785 36.9485C101.93 37.5511 100.851 37.8525 99.5462 37.8525C98.4665 37.8525 97.5069 37.618 96.6673 37.1494C95.8277 36.6733 95.1681 35.9589 94.6882 35.0065C94.2085 34.0466 93.9686 32.8377 93.9686 31.3792V20.4864H96.6224V31.2007C96.6224 32.4508 96.9748 33.4478 97.6794 34.1917C98.3916 34.9358 99.2988 35.3078 100.401 35.3078C101.06 35.3078 101.731 35.1405 102.414 34.8056C103.103 34.4707 103.681 33.9574 104.146 33.2654C104.618 32.5735 104.854 31.6918 104.854 30.6203ZM118.027 37.9865C116.363 37.9865 114.927 37.6218 113.72 36.8926C112.521 36.156 111.595 35.1292 110.942 33.8124C110.298 32.4879 109.976 30.9477 109.976 29.1918C109.976 27.4358 110.298 25.8882 110.942 24.5489C111.595 23.2022 112.502 22.1531 113.664 21.4016C114.833 20.6427 116.198 20.2632 117.757 20.2632C118.657 20.2632 119.545 20.412 120.422 20.7097C121.299 21.0073 122.098 21.4909 122.817 22.1605C123.537 22.8227 124.111 23.7007 124.538 24.7945C124.965 25.8882 125.179 27.235 125.179 28.8346V29.9507H111.865V27.6739H122.48C122.48 26.7067 122.285 25.8436 121.895 25.0846C121.513 24.3257 120.966 23.7268 120.254 23.2878C119.549 22.8488 118.717 22.6293 117.757 22.6293C116.7 22.6293 115.786 22.8897 115.013 23.4105C114.249 23.9239 113.66 24.5936 113.248 25.4195C112.836 26.2454 112.629 27.1308 112.629 28.0757V29.5936C112.629 30.8883 112.854 31.9857 113.304 32.8859C113.761 33.7789 114.395 34.4597 115.205 34.9283C116.014 35.3898 116.955 35.6204 118.027 35.6204C118.724 35.6204 119.354 35.5236 119.916 35.3301C120.486 35.1292 120.977 34.8317 121.389 34.4374C121.802 34.0356 122.12 33.537 122.345 32.9418L124.909 33.6561C124.639 34.5191 124.186 35.2781 123.549 35.9328C122.911 36.5802 122.124 37.0861 121.187 37.4507C120.25 37.8079 119.197 37.9865 118.027 37.9865ZM127.633 44.0579V20.4864H130.197V23.2097H130.511C130.706 22.912 130.976 22.5326 131.321 22.0713C131.674 21.6025 132.176 21.1859 132.828 20.8213C133.488 20.4492 134.38 20.2632 135.504 20.2632C136.959 20.2632 138.241 20.6241 139.35 21.3458C140.46 22.0676 141.326 23.0906 141.948 24.415C142.57 25.7394 142.881 27.3019 142.881 29.1026C142.881 30.918 142.57 32.4916 141.948 33.8235C141.326 35.1479 140.464 36.1746 139.361 36.9039C138.259 37.6255 136.989 37.9865 135.549 37.9865C134.44 37.9865 133.551 37.804 132.884 37.4396C132.217 37.0676 131.703 36.6471 131.344 36.1785C130.984 35.7022 130.706 35.3078 130.511 34.9954H130.287V44.0579H127.633ZM130.241 29.0578C130.241 30.3525 130.433 31.4946 130.815 32.4841C131.197 33.4663 131.756 34.2365 132.491 34.7945C133.225 35.345 134.125 35.6204 135.189 35.6204C136.299 35.6204 137.225 35.3301 137.967 34.7497C138.717 34.1619 139.279 33.3733 139.654 32.3837C140.036 31.3867 140.227 30.2782 140.227 29.0578C140.227 27.8525 140.04 26.7662 139.665 25.7989C139.298 24.8242 138.739 24.0542 137.989 23.4887C137.247 22.9158 136.314 22.6293 135.189 22.6293C134.11 22.6293 133.203 22.9009 132.468 23.444C131.733 23.9797 131.179 24.7312 130.804 25.6985C130.429 26.6583 130.241 27.7781 130.241 29.0578ZM145.346 37.6293V20.4864H147.91V23.0757H148.09C148.405 22.2275 148.975 21.5393 149.799 21.011C150.624 20.4827 151.553 20.2186 152.588 20.2186C152.783 20.2186 153.027 20.2223 153.319 20.2297C153.611 20.2372 153.833 20.2483 153.982 20.2632V22.9418C153.892 22.9195 153.686 22.886 153.364 22.8413C153.049 22.7893 152.715 22.7632 152.363 22.7632C151.523 22.7632 150.774 22.9381 150.114 23.2878C149.462 23.63 148.945 24.1062 148.562 24.7164C148.187 25.319 148 26.0073 148 26.7811V37.6293H145.346ZM155.545 37.6293V20.4864H158.199V37.6293H155.545ZM156.894 17.6293C156.377 17.6293 155.931 17.4545 155.556 17.1048C155.189 16.755 155.005 16.3347 155.005 15.8436C155.005 15.3525 155.189 14.9321 155.556 14.5824C155.931 14.2327 156.377 14.0579 156.894 14.0579C157.412 14.0579 157.854 14.2327 158.221 14.5824C158.596 14.9321 158.784 15.3525 158.784 15.8436C158.784 16.3347 158.596 16.755 158.221 17.1048C157.854 17.4545 157.412 17.6293 156.894 17.6293ZM164.13 27.3168V37.6293H161.476V20.4864H164.04V23.165H164.265C164.67 22.2945 165.285 21.5951 166.109 21.0668C166.934 20.5311 167.998 20.2632 169.303 20.2632C170.472 20.2632 171.496 20.5013 172.373 20.9775C173.25 21.4463 173.932 22.1605 174.419 23.1204C174.907 24.0728 175.15 25.2781 175.15 26.7364V37.6293H172.497V26.915C172.497 25.5683 172.144 24.5192 171.44 23.7677C170.735 23.0088 169.768 22.6293 168.538 22.6293C167.691 22.6293 166.934 22.8116 166.267 23.1762C165.607 23.5408 165.086 24.0728 164.704 24.7721C164.321 25.4716 164.13 26.3198 164.13 27.3168ZM185.928 20.4864V22.7186H176.977V20.4864H185.928ZM179.586 16.3793H182.24V32.7186C182.24 33.4627 182.349 34.0207 182.566 34.3928C182.791 34.7572 183.076 35.0029 183.421 35.1292C183.773 35.2484 184.144 35.3078 184.534 35.3078C184.826 35.3078 185.066 35.2929 185.254 35.2632C185.441 35.2261 185.591 35.1963 185.703 35.174L186.243 37.5401C186.063 37.607 185.812 37.6739 185.49 37.741C185.167 37.8153 184.759 37.8525 184.264 37.8525C183.514 37.8525 182.78 37.6926 182.06 37.3725C181.348 37.0527 180.755 36.5654 180.283 35.9105C179.819 35.2558 179.586 34.4299 179.586 33.4329V16.3793ZM190.046 14.7722L195.984 24.2811H196.164L202.101 14.7722H205.385L198.143 26.2007L205.385 37.6293H202.101L196.164 28.2989H195.984L190.046 37.6293H186.763L194.185 26.2007L186.763 14.7722H190.046Z" fill="#131212"/>
</svg>
